# xmcd
#
# Track frame offsets:
# 150
# 14878
# 29206
#
# Disc length: 548 seconds
#
#
# Revision: 0
# Processed by: cddbd v1.5.1PL2 Copyright (c) Steve Scherf et al.
# Submitted via: FreeRIP 2.944 
#
DISCID=28022203
DTITLE=Scott Cook and Susan Gabrielle - Strait Up
DYEAR=1900
DGENRE=Country
TTITLE0=Write This Down
TTITLE1=18 Wheels and a Dozen Roses
TTITLE2=Amarillo By Morning
EXTD=
EXTT0=
EXTT1=
EXTT2=
PLAYORDER=
